<?xml version="1.0" encoding="utf-8"?>
<!-- Generator: Adobe Illustrator 23.0.0, SVG Export Plug-In . SVG Version: 6.00 Build 0)  -->
<svg version="1.1" xmlns="http://www.w3.org/2000/svg" xmlns:xlink="http://www.w3.org/1999/xlink" x="0px" y="0px"
	 viewBox="0 0 192 192" style="enable-background:new 0 0 192 192;" xml:space="preserve">
<style type="text/css">
	.st0{display:none;fill-rule:evenodd;clip-rule:evenodd;fill:none;stroke:#70706F;stroke-miterlimit:10;}
	.st1{fill-rule:evenodd;clip-rule:evenodd;fill:#44A8E1;}
	.st2{fill:#F6E977;}
	.st3{fill:#E4CC2B;}
	.st4{fill:#070308;}
	.st5{fill:#D9C099;}
	.st6{fill:#DDCDAE;}
</style>
<g id="GRID">
	<path class="st0" d="M160,171.99H32c-6.6,0-12-5.4-12-12v-128c0-6.6,5.4-12,12-12h128c6.6,0,12,5.4,12,12v128
		C172,166.59,166.6,171.99,160,171.99z"/>
	<path class="st0" d="M94.5,183.99H68v-4.55c2.95,0.99,5.98,1.83,9.07,2.5c0.31,0.08,0.62,0.14,0.93,0.2
		c0.65,0.14,1.31,0.27,1.98,0.4c0.59,0.1,1.18,0.21,1.77,0.3c0.17,0.03,0.33,0.06,0.5,0.08c0.28,0.05,0.56,0.09,0.85,0.13
		C86.83,183.61,90.63,183.93,94.5,183.99z"/>
	<path class="st0" d="M160,19.99v152c0,6.6-5.4,12-12,12H94.5c-3.87-0.06-7.67-0.38-11.4-0.94c-0.28-0.03-0.57-0.08-0.85-0.13
		c-0.17-0.02-0.33-0.05-0.5-0.08c-0.59-0.09-1.19-0.19-1.77-0.3c-0.67-0.13-1.33-0.26-1.98-0.4c-0.31-0.06-0.62-0.12-0.93-0.2
		c-3.09-0.67-6.12-1.51-9.07-2.5v4.55H44c-6.6,0-12-5.4-12-12v-152c0-6.6,5.4-12,12-12h104C154.6,7.99,160,13.39,160,19.99z"/>
	<path class="st0" d="M8,147.99v-104c0-6.6,5.4-12,12-12h152c6.6,0,12,5.4,12,12v104c0,6.6-5.4,12-12,12H20
		C13.4,159.99,8,154.59,8,147.99z"/>
	<line class="st0" x1="0" y1="95.99" x2="192" y2="95.99"/>
	<line class="st0" x1="96" y1="192" x2="96" y2="-0.02"/>
	<line class="st0" x1="0" y1="67.98" x2="192" y2="67.98"/>
	<line class="st0" x1="0" y1="123.98" x2="192" y2="123.98"/>
	<polyline class="st0" points="68,0 68,7.99 68,12.54 68,19.99 68,31.99 68,64.61 68,67.98 68,67.99 68,68.07 68,78.31 68,91.06 
		68,91.46 68,95.99 68,101.4 68,123.71 68,123.91 68,123.98 68,123.99 68,159.99 68,171.99 68,179.44 	"/>
	<line class="st0" x1="68" y1="192" x2="68" y2="183.99"/>
	<line class="st0" x1="124" y1="192" x2="124" y2="0"/>
	<line class="st0" x1="191.99" y1="191.98" x2="0.01" y2="0"/>
	<line class="st0" x1="0.02" y1="191.97" x2="191.98" y2="0.01"/>
	<circle class="st0" cx="96" cy="95.99" r="39.54"/>
	<path class="st1" d="M184,95.99c0,6.17-0.63,12.19-1.85,18c0,0.01,0,0.03-0.01,0.04c-0.61,2.99-1.39,5.92-2.31,8.78
		c-0.12,0.39-0.25,0.79-0.38,1.17c-1.92,5.75-4.43,11.24-7.45,16.39c-2.8,4.79-6.04,9.3-9.68,13.45c-0.75,0.87-1.52,1.73-2.32,2.56
		c-0.58,0.62-1.17,1.23-1.78,1.83v0.01c-0.6,0.6-1.21,1.19-1.83,1.77c-4.85,4.58-10.21,8.61-16.01,12
		c-5.15,3.02-10.63,5.52-16.38,7.45c-6.67,2.24-13.69,3.7-20.97,4.27c-2.32,0.19-4.66,0.28-7.03,0.28c-4.38,0-8.69-0.32-12.9-0.94
		c-0.28-0.03-0.57-0.08-0.85-0.13c-0.17-0.02-0.33-0.05-0.5-0.08c-0.59-0.09-1.19-0.19-1.77-0.3c-0.67-0.13-1.33-0.26-1.98-0.4
		c-0.31-0.06-0.62-0.12-0.93-0.2c-3.09-0.67-6.12-1.51-9.07-2.5c-5.75-1.93-11.23-4.43-16.38-7.45c-5.8-3.39-11.16-7.42-16.01-12
		c-0.62-0.58-1.23-1.17-1.83-1.77v-0.01c-0.61-0.6-1.2-1.21-1.78-1.83c-4.58-4.85-8.62-10.22-12-16.01
		c-3.02-5.15-5.53-10.64-7.45-16.39C9.6,115.19,8,105.78,8,95.99s1.6-19.21,4.55-28.01c1.93-5.75,4.43-11.22,7.45-16.37
		c3.38-5.79,7.42-11.16,12-16.01c0.58-0.62,1.17-1.23,1.78-1.83c0.59-0.6,1.2-1.19,1.83-1.78c4.85-4.58,10.21-8.61,16.01-12
		c5.15-3.02,10.63-5.52,16.38-7.45c8.79-2.95,18.21-4.55,28-4.55s19.21,1.6,28,4.55c5.75,1.93,11.23,4.43,16.38,7.45
		c5.8,3.39,11.16,7.42,16.01,12c0.63,0.59,1.24,1.18,1.83,1.78c0.61,0.6,1.2,1.21,1.78,1.83c4.58,4.85,8.62,10.22,12,16.01
		c3.02,5.15,5.52,10.62,7.45,16.37C182.4,76.78,184,86.2,184,95.99z"/>
</g>
<g id="Camada_2">
	<g>
		<path class="st2" d="M77.64,183.99h0.41c0,0.01,0,0.01,0,0.02h-0.4C77.65,184,77.65,184,77.64,183.99z"/>
		<path class="st2" d="M179.91,122.85c-0.12,0.38-0.25,0.76-0.37,1.13c-0.01,0.01-0.01,0.01-0.01,0.02
			c-1.92,5.75-4.43,11.24-7.45,16.39c-0.03,0.04-0.05,0.09-0.08,0.13c-2.79,4.76-6.02,9.25-9.65,13.38
			c-0.73,0.85-1.49,1.68-2.27,2.5c-0.03,0.03-0.05,0.05-0.08,0.08c-0.55,0.59-1.12,1.18-1.7,1.75v0.01
			c-0.01,0.01-0.02,0.02-0.03,0.02c-0.58,0.59-1.18,1.17-1.78,1.73c-0.01,0.01-0.01,0.01-0.02,0.02
			c-4.84,4.57-10.19,8.6-15.98,11.98c-0.01,0.01-0.02,0.01-0.03,0.02c-5.15,3.02-10.63,5.52-16.38,7.45
			c-0.03,0.01-0.05,0.02-0.08,0.03c-6.67,2.23-13.69,3.68-20.97,4.24c0.02,0.09,0.04,0.18,0.06,0.26c0,0.01,0,0.01,0,0.02H96
			c-0.5,0-1-0.01-1.5-0.02c-3.87-0.06-7.67-0.38-11.4-0.94c-0.28-0.03-0.57-0.08-0.85-0.13c-0.17-0.02-0.33-0.05-0.5-0.08
			c-0.59-0.09-1.19-0.19-1.77-0.3c-0.67-0.13-1.33-0.26-1.98-0.4c-0.31-0.06-0.62-0.12-0.93-0.2c-0.46-1.72-0.9-3.5-1.31-5.31
			c-0.37-1.66-0.68-3.2-0.94-4.62c0-0.01,0-0.01,0-0.02c-0.96-5.24-1.21-8.75-1.3-10.2c-0.04-0.6-0.07-1.19-0.09-1.78
			c0-0.01,0-0.01,0-0.02c-0.29-6.03,0.11-11.15,0.58-14.99c0.06-1.12,0.13-2.15,0.2-3.09v-0.03c0.1-1.32,0.21-2.45,0.3-3.34
			c0.47-4.64,0.91-6.37-0.07-8.36c-0.78-1.57-2.07-2.53-3.02-3.09c-0.39-0.36-0.8-0.73-1.22-1.13c-0.17-0.17-0.35-0.34-0.53-0.52
			c-0.46-0.45-0.93-0.93-1.4-1.44c-0.01-0.01-0.01-0.01-0.02-0.02l-0.07-0.07c-0.01-0.02-0.03-0.03-0.05-0.05
			c-0.01-0.02-0.03-0.04-0.05-0.06c-0.02-0.02-0.03-0.03-0.04-0.05c-0.01-0.01-0.02-0.03-0.04-0.04c-2.71-2.92-5.59-6.72-7.97-11.42
			c-0.03-0.07-0.05-0.13-0.09-0.19c-0.19-0.39-0.39-0.79-0.57-1.19c-0.71-1.51-1.36-3.12-1.93-4.82c-0.31-0.92-0.75-2.22-1.19-3.83
			c-0.49-1.76-1-3.89-1.35-6.25c0-0.01,0-0.01,0-0.02c-0.36-2.44-0.56-5.14-0.43-7.95c0.01,0,0.01,0,0.01,0v-0.01l-0.01-0.01
			c0.23-4.37,1.27-9.01,3.79-13.43c0.2-0.34,0.41-0.68,0.62-1.02c1.4-2.21,2.99-4.04,4.66-5.57c0.01-0.01,0.01-0.01,0.02-0.02
			c0.8-0.73,1.62-1.4,2.43-2c0.01-0.01,0.02-0.02,0.03-0.03c0.66-0.48,1.33-0.93,1.98-1.34c0.03-0.02,0.05-0.03,0.08-0.05
			c2.29-1.46,4.53-2.52,6.43-3.42c7.27-3.46,14.47-4.58,20.47-4.68c0.35-0.01,0.69-0.01,1.02-0.01h0.08c0.67,0,1.32,0.02,1.95,0.05
			c6.08,0.23,10.54,1.4,11.95,1.79c5.35,1.49,10.01,3.75,14.02,6.31c0.03,0.02,0.05,0.03,0.08,0.05c0.63,0.4,1.24,0.81,1.83,1.23
			c0.04,0.03,0.08,0.05,0.12,0.08c0.02,0.01,0.04,0.03,0.06,0.04c0.92,0.64,1.81,1.3,2.65,1.98c0.01,0,0.02,0.01,0.03,0.02
			c6.1,4.79,10.24,9.92,12.6,12.84c0.14,0.17,2.24,2.92,6.43,8.43c2.01,2.65,3.7,4.85,5.11,6.72c0.01,0.01,0.02,0.01,0.02,0.02
			c3.1,4.07,4.94,6.49,6.27,8.17h0.01c0.18,0.23,0.35,0.45,0.52,0.66c0.01,0.02,0.02,0.03,0.04,0.05c0.08,0.1,0.16,0.19,0.23,0.29
			c0.03,0.03,0.05,0.07,0.08,0.1c0.91,1.12,1.6,1.9,2.47,2.85c3.29,3.58,5.96,6.49,9.45,9.33c0.03,0.03,0.05,0.05,0.08,0.07
			c1.02,0.83,2.12,1.66,3.32,2.5c1.72,1.19,3.09,2.02,4.43,2.78C179.86,122.82,179.88,122.83,179.91,122.85z"/>
		<path class="st3" d="M182.23,114.04c0,0.02-0.01,0.03-0.01,0.05c-0.26,1.26-0.55,2.51-0.87,3.75c-0.43,1.69-0.91,3.36-1.44,5.01
			c-0.12,0.39-0.25,0.77-0.38,1.15c-1.92,5.75-4.43,11.24-7.45,16.39c-2.81,4.81-6.07,9.34-9.73,13.51
			c-0.73,0.85-1.49,1.68-2.27,2.5c-0.58,0.62-1.17,1.23-1.78,1.83v0.01c-0.6,0.6-1.21,1.19-1.83,1.77
			c-4.85,4.58-10.21,8.61-16.01,12c-5.15,3.02-10.63,5.52-16.38,7.45c-6.69,2.25-13.74,3.71-21.05,4.27
			c-0.82-3.85-1.34-7.77-1.49-11.72c-0.16-3.97,0.06-7.98,0.71-12c0.46-2.82,1.13-5.65,2.04-8.48c2.2-6.85,6-14.16,10.94-20.92
			c1.66-2.28,3.45-4.49,5.36-6.61c0.55-0.61,1.11-1.21,1.68-1.8c0.59-0.62,1.19-1.23,1.81-1.83c2.23-2.18,4.58-4.2,7.04-6.02
			c0,0,0,0,0.01-0.01c8.21-6.11,17.53-9.94,27.1-9.59c0.5,0.02,1,0.05,1.5,0.09c0.12,0.01,0.24,0.02,0.35,0.04
			c0.7,0.06,1.41,0.14,2.11,0.25c2.82,0.44,5.62,1.24,8.4,2.36c0,0,0.02,0.01,0.06,0.02c0.04,0.02,0.1,0.04,0.18,0.07
			c0.08,0.04,0.17,0.08,0.29,0.12c0.1,0.04,0.21,0.09,0.33,0.14c0.18,0.08,0.39,0.17,0.63,0.27c0.73,0.33,1.69,0.78,2.8,1.34
			c1.94,1.03,3.87,2.19,5.79,3.5c0.09,0.07,0.19,0.13,0.28,0.2C181.38,113.44,181.81,113.74,182.23,114.04z"/>
		<path class="st2" d="M182.22,114.09c-0.26,1.26-0.55,2.51-0.87,3.75c-0.43,1.69-0.91,3.36-1.44,5.01
			c-0.12,0.39-0.25,0.77-0.38,1.15c-1.92,5.75-4.43,11.24-7.45,16.39c-2.81,4.81-6.07,9.34-9.73,13.51
			c-0.83-2.24-1.59-4.58-2.27-7.02c-1.49-5.28-2.6-11.02-3.11-17.26c-0.16-1.94-0.26-3.81-0.29-5.62c-0.18-8,0.71-14.65,1.55-19.25
			c0.47,0.04,0.99,0.08,1.54,0.14c0.1,0.01,0.2,0.03,0.31,0.04c0.8,0.09,1.68,0.22,2.61,0.38c2.32,0.41,5.01,1.08,7.9,2.18
			c0,0,0.02,0.01,0.06,0.02c0.04,0.02,0.1,0.04,0.18,0.07c0.08,0.04,0.17,0.08,0.29,0.12c0.1,0.04,0.21,0.09,0.33,0.14
			c0.18,0.08,0.39,0.17,0.63,0.27c0.73,0.33,1.69,0.78,2.8,1.34c1.72,0.89,3.78,2.07,5.79,3.5c0.09,0.07,0.19,0.13,0.28,0.2
			C181.38,113.46,181.8,113.77,182.22,114.09z"/>
		<circle class="st4" cx="92.35" cy="78.57" r="6.64"/>
		<path class="st5" d="M30.64,88.66c2.6-0.47,5.42-0.84,8.42-1.06c9.58-0.68,17.89,0.51,24.35,2.06c0.47,0.02,3.56,0.22,5.42,2.69
			c1.98,2.64,1.27,6.15-0.21,8.29c-1.89,2.71-5.04,3.22-5.95,3.33c-2.47,0.29-4.35-0.55-9.66-3.4c-3.97-2.13-5.95-3.19-8.74-4.84
			C41.13,93.88,36.56,91.35,30.64,88.66z"/>
		<path class="st6" d="M27.3,89.87c5.4-4.07,10.18-6.94,13.63-8.85c12.87-7.12,17.69-6.55,19.11-6.32c1.8,0.29,7.05,1.12,9.41,5.62
			c1.7,3.24,1.69,8.44-0.84,10.54c-0.15,0.12-0.29,0.22-0.39,0.28c-4.61-1.52-10.83-3.07-18.3-3.51
			C40.49,87.05,32.66,88.46,27.3,89.87z"/>
	</g>
</g>
</svg>
