<?xml version="1.0" encoding="utf-8"?>
<!-- Generator: Adobe Illustrator 23.0.0, SVG Export Plug-In . SVG Version: 6.00 Build 0)  -->
<svg version="1.1" id="Camada_1" xmlns="http://www.w3.org/2000/svg" xmlns:xlink="http://www.w3.org/1999/xlink" x="0px" y="0px"
	 viewBox="0 0 1920 1080" style="enable-background:new 0 0 1920 1080;" xml:space="preserve">
<style type="text/css">
	.st0{fill:#FFF176;}
	.st1{font-family:'QuicksandBookOblique-Regular';}
	.st2{font-size:442.1467px;}
	.st3{fill:#D9C06C;}
	.st4{fill:#EFD514;}
	.st5{fill:#DDC49B;}
	.st6{fill:#E0D0B0;}
</style>
<g id="Camada_2">
</g>
<g>
	<text transform="matrix(1 0 0 1 10.3717 948.2173)" class="st0 st1 st2">Canary</text>
	<g id="Camada_3_2_">
		<path class="st0" d="M1088.92,91.39c12.52-19.84,30.67-28.47,43.37-34.51c45.76-21.75,90.32-10.15,98.43-7.89
			c47.15,13.12,75.27,47.9,87.13,62.57c0.39,0.48,6.2,8.11,17.84,23.38c30.71,40.32,33.48,44.2,40.93,52.33
			c11.88,12.96,20.83,22.72,35.66,33.04c14.3,9.95,20.3,10.85,39.46,24.26c7.54,5.29,14.1,10.63,26.89,21.05
			c25.57,20.83,29.95,24.06,32.87,26.91c1.41,1.38,2.35,2.48,3.27,3.45c22.1,23.93,37.41,49.92,39.7,53.83
			c6.02,10.33,4.88,9.71,18.7,37.42c13.51,27.07,14.81,27.37,31.97,61.6c17.95,35.81,27.04,53.98,32.74,67.05
			c5.67,12.98,9.84,23.13,15.6,37.42c7.42,18.41,16.41,41.61,17.44,44.27c2.64,6.85,11.27,29.18,18.83,43.44
			c0.88,1.67,2.07,3.82,3.93,7.47c3.01,5.95,5.85,11.97,8.94,17.86c0.17,0.31,3.18,6.08,5.85,13.84c1.19,3.49,2.62,8.22,2.42,14.22
			c-0.02,0.79-0.07,1.32-0.09,1.56c-0.84,16.13,26.5,69.89,87.13,119.28c15.45,12.59,17.66,12.33,30.41,23.97
			c4.24,3.87,9.89,9.27,46.79,53.21c2.42,2.9,12.13,14.54,22.8,31c5.85,9.05,11.82,19.25,11.69,31.57
			c-0.02,2.57-0.13,11.6-5.27,14.61c-2.83,1.65-5.45,1.56-5.45,1.56c-3.08-0.11-4.46-1.85-5.85-1.17c-1.49,0.73-1.45,3.51-1.45,6.64
			c0,2.28,0.04,10.79-0.11,13.44c-0.28,4.66-2.29,11.71-6.42,14.81c-10.5,7.87-33.96-10.15-37.74-5.14c-0.97,1.3,0.5,2.64,2.26,10.2
			c1.95,8.33,3.08,13.23,0.97,17.55c-3.12,6.39-11.62,7.89-13.25,8.19c-2.88,0.51-8.46,0.9-19.49-4.68
			c-2.97-1.51-10.92-5.76-24.36-18.52c-8-7.6-13.58-14.06-21.25-23c-6.99-8.15-12.1-14.59-14.43-17.55
			c-18.19-23.07-23.48-32.16-34.1-45.81c-12.33-15.84-15.84-17.27-34.51-37.81c-13.66-15.05-16.81-19.82-45.61-55.56
			c-78.08-96.87-60.37-68.55-78.35-93.55c-8-11.12-16.79-24.08-33.72-35.28c-5.58-3.69-17.05-8.42-39.96-17.93
			c-18.41-7.64-27.42-10.66-38.78-12.48c-9.75-1.54-17.79-1.67-19.69-1.69c-13.93-0.13-18.43,3.05-30.8,2.46
			c-1.93-0.09-7.51-0.4-19.49-3.51c-3.21-0.83-23.25-6.11-43.65-16.26c-38.18-19-77-54.75-82.48-59.83
			c-26.04-23.86-43.52-46.66-54.84-63.63c-19.9-29.83-33.17-60.17-41.08-78.23c-1.01-2.29-1.95-5.19-3.8-8.92
			c0,0-13.31-31.4-21.16-66.61c-4.85-21.71-5.87-36.07-6.2-41.17c-1.25-18.9-0.09-34.89,1.36-46.58c0.39-7.54,0.94-13.69,1.36-17.93
			c1.32-12.87,2.53-17.68-0.2-23.2c-2.15-4.35-5.73-7.01-8.39-8.57c-12.41-11.21-29.37-30.27-38.78-58.27
			C1080.53,168.55,1066.6,126.74,1088.92,91.39z"/>
	</g>
	<g id="Camada_8_2_">
		<path class="st0" d="M1527.18,700.11c-33.17,0.48-84.85-2.88-142.69-24.78c-127.23-48.18-188.08-149.68-203.42-177.27
			c-50.9-91.44-51.65-178.59-49.59-217.11c3.16-11.69,8.94-27.53,20.3-43.37c51.06-71.07,166.45-74.81,215.55-61.23
			C1481.05,207.79,1557.28,420.08,1527.18,700.11z"/>
	</g>
	<g id="Camada_7_2_">
		<path class="st3" d="M1527.18,700.11c25.86,26.38,45.72,48.57,58.46,63.18c31.72,36.38,38.98,48.38,85.26,103.7
			c29.95,35.81,32.38,36.56,51.01,60.02c24.25,30.52,34.74,46.91,46.25,57.8c2.11,2,12.57,11.67,22.76,26.41
			c0.26,0.37,0.22,0.33,0.37,0.53c8.66,12.39,19.64,17.16,27.7,20.52c6.39,2.66,9.97,3.21,11.21,3.38c3.8,0.5,8.24,1.08,12.76-1.03
			c5.3-2.48,7.73-7.27,8.77-9.36c6.13-12.17-0.62-25.84-1.71-27.97c2.83,2.51,8.55,6.92,16.9,8.66c3.38,0.7,16.61,3.47,23.38-4.09
			c3.6-4.02,3.84-9.23,4.09-14.61c0.35-7.45-1.51-13.44-2.92-16.96c3.71,0.99,9.43,1.85,13.45-1.17c7.76-5.84,3.71-22.14,2.26-27.97
			c-4.33-17.44-13.27-27.33-39.39-57.45c-28.36-32.71-25.16-29.55-29.4-34.01c-17.77-18.63-28.38-26.6-51.59-47.23
			c-26.25-23.33-41.35-38.65-46.97-43.85C1715.7,736.27,1661.37,710.94,1527.18,700.11z"/>
	</g>
	<g id="Camada_6_2_">
		<path class="st4" d="M1214.94,307.75c-42.01,130.46,99.04,261.95,121.63,283c54.92,51.19,109.78,74.72,187.12,107.59
			c89.42,38.01,168.47,57.41,224.82,68c-5.98-6.46-12.65-14.65-19-24.74c-4.97-7.89-8.79-15.4-11.73-22.1
			c-1.12-2.59-2.22-5.16-3.34-7.75c-0.79-9.97-2.75-22.17-7.4-35.44c-6.15-17.66-14.3-29.42-16.28-32.38
			c-43.3-64.83-171.83-460.29-326.14-466.03C1297.2,175.44,1234.19,247.93,1214.94,307.75z"/>
		<path class="st4" d="M1723.84,672.43"/>
		<path class="st4" d="M1707.14,632.71"/>
	</g>
	<g id="Camada_5_2_">
		<path class="st0" d="M1364.63,177.93c-2.86,15.64-5.91,39.83-3.51,68.99c5.38,65.34,34.38,111.43,53.8,141.51
			c80.59,124.83,255.22,242.22,277,256.7c-8.26-23.95-20.69-58.68-37.11-100.05c-39.24-98.76-77.45-175.63-125.08-248.02
			c-33.22-50.49-57.8-79.07-96.47-98.65C1406.46,184.87,1381.48,179.95,1364.63,177.93z"/>
	</g>
	<g>
		<circle cx="1181.81" cy="105.29" r="18.43"/>
	</g>
	<g id="Camada_4_2_">
		<path class="st5" d="M1010.56,133.26c7.23-1.3,15.03-2.35,23.36-2.94c26.58-1.87,49.65,1.41,67.58,5.71
			c1.3,0.06,9.87,0.61,15.03,7.47c5.49,7.32,3.54,17.07-0.59,23c-5.23,7.51-14,8.94-16.52,9.23c-6.86,0.79-12.08-1.52-26.8-9.42
			c-11.01-5.91-16.52-8.85-24.26-13.44C1039.67,147.76,1026.99,140.73,1010.56,133.26z"/>
		<path class="st6" d="M1001.31,136.62c15-11.29,28.25-19.27,37.81-24.56c35.72-19.77,49.1-18.17,53.01-17.55
			c5.01,0.79,19.57,3.1,26.12,15.6c4.72,8.98,4.7,23.42-2.33,29.24c-0.42,0.35-0.79,0.61-1.08,0.79
			c-12.79-4.24-30.06-8.52-50.77-9.75C1037.91,128.82,1016.18,132.71,1001.31,136.62z"/>
	</g>
</g>
</svg>
